<svg xmlns="http://www.w3.org/2000/svg" width="960" height="600" viewBox="0 0 960 600">
  <rect width="960" height="600" fill="#eef2fb"/>
  <circle cx="865" cy="55" r="230" fill="#e6e3fa"/>
  <circle cx="70" cy="590" r="210" fill="#dff2ed"/>
  <g fill="none" stroke="#c2ccdf" stroke-width="2">
    <path d="M0 80H960M0 520H960M60 0V600M900 0V600"/>
  </g>
  <g fill="#fff" stroke="#d6dfef" stroke-width="2">
    <rect x="68" y="130" width="240" height="324" rx="24"/>
    <rect x="360" y="130" width="240" height="324" rx="24"/>
    <rect x="652" y="130" width="240" height="324" rx="24"/>
  </g>
  <g font-family="Arial,sans-serif" font-size="27" font-weight="bold" fill="#536681">
    <text x="96" y="180">01</text><text x="388" y="180">02</text><text x="680" y="180">03</text>
  </g>
  <g fill="none" stroke="#98a9c3" stroke-width="3" stroke-linecap="round" stroke-linejoin="round">
    <path d="M318 293H348M340 285L348 293L340 301M610 293H640M632 285L640 293L632 301"/>
  </g>
  <g fill="#edf1ff" stroke="#365ae8" stroke-width="4" stroke-linecap="round" stroke-linejoin="round">
    <path d="M140 224H204L236 256V358H140ZM204 224V256H236"/>
    <path d="M160 279H216M160 302H209M160 325H193"/>
  </g>
  <g fill="#f0edfc" stroke="#7a60cc" stroke-width="4" stroke-linecap="round">
    <rect x="434" y="244" width="92" height="92" rx="10"/>
    <rect x="457" y="267" width="46" height="46" rx="5"/>
    <path d="M452 230V244M480 230V244M508 230V244M452 336V350M480 336V350M508 336V350M420 262H434M420 290H434M420 318H434M526 262H540M526 290H540M526 318H540"/>
  </g>
  <g fill="#e7f5f0" stroke="#148877" stroke-width="4" stroke-linecap="round" stroke-linejoin="round">
    <rect x="720" y="232" width="104" height="126" rx="10"/>
    <rect x="749" y="222" width="46" height="23" rx="7"/>
    <path d="M743 293L764 314L804 274" fill="none"/>
  </g>
  <g fill="#dfe6f3">
    <rect x="110" y="405" width="157" height="6" rx="3"/>
    <rect x="402" y="405" width="157" height="6" rx="3"/>
    <rect x="694" y="405" width="157" height="6" rx="3"/>
  </g>
</svg>
